<svg width="42" height="42" viewBox="0 0 42 42" fill="none" xmlns="http://www.w3.org/2000/svg">
<path opacity="0.2" d="M11.4353 35.8148C11.3131 35.9389 11.1676 36.0373 11.007 36.1046C10.8465 36.1718 10.6742 36.2064 10.5001 36.2064C10.326 36.2064 10.1537 36.1718 9.99319 36.1046C9.83264 36.0373 9.68707 35.9389 9.56494 35.8148L6.18526 32.4352C6.06125 32.313 5.96276 32.1675 5.89554 32.0069C5.82832 31.8464 5.7937 31.6741 5.7937 31.5C5.7937 31.3259 5.82832 31.1536 5.89554 30.9931C5.96276 30.8325 6.06125 30.687 6.18526 30.5648L23.6251 13.125L28.8751 18.375L11.4353 35.8148Z" fill="#FF6250"/>
<path d="M35.4375 21V28.875" stroke="#FF6250" stroke-width="2.375" stroke-linecap="round" stroke-linejoin="round"/>
<path d="M31.5 24.9375H39.375" stroke="#FF6250" stroke-width="2.375" stroke-linecap="round" stroke-linejoin="round"/>
<path d="M13.7812 6.5625V13.125" stroke="#FF6250" stroke-width="2.375" stroke-linecap="round" stroke-linejoin="round"/>
<path d="M10.5 9.84375H17.0625" stroke="#FF6250" stroke-width="2.375" stroke-linecap="round" stroke-linejoin="round"/>
<path d="M27.5625 30.1875V35.4375" stroke="#FF6250" stroke-width="2.375" stroke-linecap="round" stroke-linejoin="round"/>
<path d="M24.9375 32.8125H30.1875" stroke="#FF6250" stroke-width="2.375" stroke-linecap="round" stroke-linejoin="round"/>
<path d="M30.5857 6.17395L6.18882 30.5708C5.67626 31.0834 5.67626 31.9144 6.18882 32.4269L9.5821 35.8202C10.0947 36.3328 10.9257 36.3328 11.4383 35.8202L35.8351 11.4234C36.3477 10.9108 36.3477 10.0798 35.8351 9.56724L32.4418 6.17395C31.9293 5.66139 31.0982 5.66139 30.5857 6.17395Z" stroke="#FF6250" stroke-width="2.375" stroke-linecap="round" stroke-linejoin="round"/>
<path d="M23.625 13.125L28.875 18.375" stroke="#FF6250" stroke-width="2.375" stroke-linecap="round" stroke-linejoin="round"/>
</svg>
