<svg width="42" height="42" viewBox="0 0 42 42" fill="none" xmlns="http://www.w3.org/2000/svg">
<path opacity="0.2" d="M16.7998 32.55L9.44979 25.2L6.21776 34.1086C6.1284 34.3423 6.10863 34.597 6.16084 34.8417C6.21304 35.0865 6.33498 35.3109 6.51194 35.4878C6.6889 35.6648 6.9133 35.7867 7.15805 35.8389C7.40281 35.8912 7.65744 35.8714 7.8912 35.782L16.7998 32.55Z" fill="#F8D57E"/>
<path opacity="0.2" d="M32.6207 24.8341L32.6209 24.8342C32.7706 24.9826 32.8802 25.1663 32.9398 25.3684C32.9994 25.5705 33.007 25.7844 32.9617 25.9901C32.9165 26.1959 32.82 26.3869 32.6812 26.5454C32.5424 26.7039 32.3658 26.8248 32.1678 26.8967L25.4787 29.3277L12.6724 16.5215L15.1034 9.8323C15.1753 9.63428 15.2962 9.45767 15.4547 9.31886C15.6132 9.18006 15.8042 9.08357 16.01 9.03836C16.2157 8.99315 16.4296 9.00069 16.6317 9.06028C16.8338 9.11986 17.0175 9.22955 17.1659 9.37917L17.1661 9.37936L32.6207 24.8341Z" fill="#F8D57E" stroke="#F8D57E" stroke-width="0.125"/>
<path d="M6.21776 34.1086L15.0443 9.81095C15.1199 9.60303 15.2468 9.41759 15.4132 9.27184C15.5796 9.1261 15.7802 9.02479 15.9963 8.97732C16.2123 8.92985 16.4369 8.93776 16.6491 9.00033C16.8613 9.06289 17.0542 9.17807 17.2099 9.33517L32.6646 24.7899C32.8217 24.9456 32.9369 25.1385 32.9995 25.3507C33.062 25.5629 33.0699 25.7875 33.0225 26.0035C32.975 26.2196 32.8737 26.4202 32.728 26.5866C32.5822 26.753 32.3968 26.8799 32.1888 26.9555L7.8912 35.782C7.65744 35.8714 7.40281 35.8912 7.15805 35.839C6.9133 35.7868 6.6889 35.6648 6.51194 35.4879C6.33498 35.3109 6.21304 35.0865 6.16084 34.8417C6.10863 34.597 6.1284 34.3424 6.21776 34.1086V34.1086Z" stroke="#F8D57E" stroke-width="2" stroke-linecap="round" stroke-linejoin="round"/>
<path d="M27.5625 11.8125C27.5625 11.8125 27.5625 7.875 31.5 7.875C35.4375 7.875 35.4375 3.9375 35.4375 3.9375" stroke="#F8D57E" stroke-width="2" stroke-linecap="round" stroke-linejoin="round"/>
<path d="M16.8002 32.55L9.4502 25.2" stroke="#F8D57E" stroke-width="2" stroke-linecap="round" stroke-linejoin="round"/>
<path d="M23.625 2.625V6.5625" stroke="#F8D57E" stroke-width="2" stroke-linecap="round" stroke-linejoin="round"/>
<path d="M35.4375 18.375L38.0625 21" stroke="#F8D57E" stroke-width="2" stroke-linecap="round" stroke-linejoin="round"/>
<path d="M35.4375 13.125L39.375 11.8125" stroke="#F8D57E" stroke-width="2" stroke-linecap="round" stroke-linejoin="round"/>
<path d="M12.6001 16.5375L25.4626 29.4" stroke="#F8D57E" stroke-width="2" stroke-linecap="round" stroke-linejoin="round"/>
</svg>
